<svg id="Capa_1" data-name="Capa 1" xmlns="http://www.w3.org/2000/svg" viewBox="0 0 815.75 173.61"><defs><style>.cls-1{fill:#f9f9f9;}</style></defs><title>logo-white</title><path class="cls-1" d="M223,75.95h-42.6c11.13,37,2.55,67.38-31.08,88.11C125,179,93.59,175.89,71.1,158.17c-21.63-17-34.47-49.06-21.57-82.1H6.46v2.42q0,31.66,0,63.31c0,6.83,3,9.85,9.85,9.86H45.57a10.41,10.41,0,0,1,2,.08c1.49.29,2.51,1.35,2.16,2.75-.24,1-1.38,1.78-2.25,2.51-.3.26-1,.08-1.49.08q-15.28,0-30.57,0C6.8,157.06,1.06,151.52,1,142.9Q1,94.76,1.05,46.62c0-8.55,5.81-14.09,14.41-14.11,13,0,26.05,0,39.08,0,7.44,0,11.58-4.15,11.67-11.65,0-.65,0-1.31,0-2C65.4,7.73,73.66,2.06,81.37.66A42.18,42.18,0,0,1,88.75,0c17.39-.05,34.79,0,52.18,0,4.89,0,9.59.71,13.83,3.27,5.69,3.44,9.16,8.21,8.78,15.19a30.07,30.07,0,0,0,.06,3.93c.49,6.41,4.41,10.09,10.84,10.1q20,0,40,0a13.53,13.53,0,0,1,11.09,5.1,13,13,0,0,1,3,8.48q0,48.69,0,97.37a13.28,13.28,0,0,1-13.49,13.63c-12.37.08-24.74,0-37.12,0-2.25,0-3.49-1-3.49-2.69s1.25-2.73,3.48-2.73q17.9,0,35.81,0c6.28,0,9.39-3.1,9.39-9.36q0-31.88,0-63.75C223,77.76,223,77,223,75.95Zm0-5.5c0-1,0-1.79,0-2.57q0-10.15,0-20.3c0-6.58-3-9.62-9.58-9.63q-17.25,0-34.5,0a68.68,68.68,0,0,1-7-.16c-6.33-.66-10.79-4-12.69-10.08a30.73,30.73,0,0,1-1.11-9.44c.05-4.35-1.86-7.37-5.24-9.69-3.56-2.45-7.61-3.11-11.84-3.11q-26.2,0-52.4,0a34,34,0,0,0-5.22.35c-8.34,1.31-11.84,5.45-11.84,13.85q0,.44,0,.87c0,11-6.39,17.41-17.33,17.41-13,0-25.91,0-38.86,0-5.69,0-8.92,3.31-8.94,9,0,7.2,0,14.41,0,21.61,0,.56.09,1.12.15,1.89H8.87c13.54,0,27.07-.05,40.61.05a4.06,4.06,0,0,0,4.22-2.36,70.08,70.08,0,0,1,82.43-32.32c17.64,5.72,31,16.88,40.17,33,.55,1,1,1.66,2.41,1.66,13.9-.09,27.8-.06,41.7-.06Zm-43.26,32.48a65,65,0,1,0-64.85,65A65,65,0,0,0,179.74,102.92Z" transform="translate(-1)"/><path class="cls-1" d="M332.06,134.66l-1.23-1.36c-.8,2.36-2.74,1.84-4.57,1.26-2.48-.8-3.07-2.22-1.71-4.4,4.56-7.27,9.43-14.36,13.78-21.76,5.2-8.83,10.12-17.84,14.91-26.9q8.37-15.82,16.25-31.89a11,11,0,0,1,7-5.72,13,13,0,0,0,2.27-1.15c3-1.72,6.05-3,9.36-.79a5.81,5.81,0,0,1,1.8,1.77A23.18,23.18,0,0,1,393,57.78c-.57,6.37-1.19,12.75-2.08,19.09-.54,3.83-1.66,7.57-2.45,11.37a11.74,11.74,0,0,0,.18,2.62c1-1.06,1.59-1.72,2.19-2.4,11-12.6,22.38-24.87,34.5-36.44,5.3-5.06,11.9-7.66,18.1-11.07a28.34,28.34,0,0,1,3.5-1.27c1.12-.43,1.7-.11,2.11,1.05.89,2.52.26,4.77-.84,7-1.31,2.7-2.39,5.53-3.8,8.17-.93,1.74-2.37,3.2-3.42,4.88a31.37,31.37,0,0,0-1.57,3.49c-1.06,2.28-2.13,4.56-3.26,6.82-.21.42-.72.67-1,1.05s-1,1.11-.91,1.38c1.17,2.55-.84,2.49-2.28,2.94-1.19.37-1.2.63-.46,1.77a1.39,1.39,0,0,1,0,1.28c-.68.89-1.51,1.67-2.34,2.55.63,2.17-.44,4.85-1.64,5.49l-2.35,6.29.57.23-3.06,3.67,1.79,1.52c-2.15,1.47-4.35,2.78-4.45,5.67-2.29.87-.82,3.18-1.77,4.65a11.46,11.46,0,0,0-2.14,5.18,14.14,14.14,0,0,1-1.82,7.18,19.75,19.75,0,0,1-4.11,4.24c-.47.39-1.53.06-2.33.06l.25.66a14.32,14.32,0,0,0-3,1.41c-1.13.88-1.89,2.25-3.06,3s-2.81,1.79-4.08,1.61a3.22,3.22,0,0,1-2.85-3.32,48,48,0,0,1,1.06-7.53c1.26-5.08,2.61-10.15,4.25-15.11,1.48-4.47,3.42-8.78,5.11-13.18,1.06-2.75,2-5.54,2.87-8.45-10,10.36-20.17,20.62-27,33.79l1.15.93c-.13.18-.2.39-.28.39-1.95,0-1.29,2.25-2.49,3-.62.38-.81,1.39-1.37,1.92a16.47,16.47,0,0,1-3.88,3.1,55.26,55.26,0,0,1-6.59,2.12,14.89,14.89,0,0,0-2.67,1c-1.23.67-2.49,1.21-3.6.08s-2.14-2.15-1.45-4.16c4.45-12.86,8.87-25.74,11.06-39.23.59-3.65.87-7.35,1.3-11l-.68-.37c-.54.74-1.13,1.45-1.61,2.23-.88,1.45-1.63,3-2.55,4.39s-2.13,2.72-2.93,4.22a24.5,24.5,0,0,0-1.3,4,3.29,3.29,0,0,1-.53,1.12,17.37,17.37,0,0,0-3.09,6.51c-.23.76-1.09,1.3-1.55,2-4.48,6.82-8.91,13.68-13.43,20.49a71.93,71.93,0,0,1-4.35,5.74c-.58.7-1.45,1.69-2.16,1.67-3.22-.11-3.95,2.59-5.47,4.42C332.78,133.9,332.63,134,332.06,134.66Z" transform="translate(-1)"/><path class="cls-1" d="M267.66,128.08l1.12.36c-.17,1.21-4.12.82-1.5,2.75-2.58,1.42-5.16,2.93-7.81,4.28-2.91,1.48-5.84,2.95-8.87,4.16-1,.38-2.76.34-3.27-.27a4.61,4.61,0,0,1-.88-3.73c1.59-4.9,3.35-9.76,5.36-14.51,2.69-6.36,5.28-12.8,8.58-18.85,6.57-12,13.15-24.11,21.35-35.19,2.69-3.63,5.26-7.35,7.81-10.92-1.66-.31-3.36-.57-5-1-1.31-.31-1.4-1.16-.59-2.1,2.13-2.48,4.16-5.07,6.47-7.37,4.51-4.5,10.26-6.08,16.45-6.42,2.4-.14,4.79-.48,7.18-.5,6.21-.06,12.42,0,17.95,3.55a3.15,3.15,0,0,0,1.43.19c2.59.13,6.6,3.18,7.18,5.53L342,47.6l-.58,1.65,1.43.17a50.38,50.38,0,0,1,3.12,5.73c.41,1,.07,2.38.07,3.71l-2.54.74,1.65.73-1.94,7.74A12.75,12.75,0,0,1,341,70.26c-2.56,1.47-3.68,4.62-6.89,5.46-1.41.37-2.4,2.13-3.75,3-2.05,1.34-4.23,2.49-6.38,3.68-1.29.72-2.64,1.35-3.94,2.05-.24.13-.48.62-.6.58-2-.7-3.1,1.39-4.86,1.55-.81.07-1.52.89-2.33,1.25-1.36.61-2.76,1.13-4.15,1.69l-2.09.85c-.48.19-1,.4-1.44.54-.19.05-.57-.15-.61-.09a5.22,5.22,0,0,1-4.37,2.56c-.4,0-.76.59-1.15.6-6,.17-11.48,2.47-17,4.66l-.41.16c-2,.78,0,2.3-.62,3.38-.52.86-3.3.49-1.71,2.19l-2.15,4.2c-1.2-.15-2.19.26-1.08,1.89l-3.09,5.94,1.55.87-3.08,3.37,1.62.53Zm34.9-67,1,1.22-4.31,3.41,1.23,1.64-2,1.49,1.8,1-.16.43-2.69-.49c-.05,1.22.26,2.55-.26,3.35s-1.83.86-2.87,1.28l.7,1.43L292.06,79c.1,1.16.39,1.87.15,2.29-.52.91-1.41,1.6-1.94,2.5-1,1.63-1.78,3.34-2.65,5l.35.52a36.8,36.8,0,0,0,3.66-.87A135.34,135.34,0,0,0,314,78.68c4.66-2.62,8-6.17,11.1-10.19a8.73,8.73,0,0,0-4.58-13.82c-3.4-1-6.9-1.59-10.58-2.42.88,3.11-1.84,1.74-2.71,2.63l1.37,1.29h-3.76l1,1.33Z" transform="translate(-1)"/><path class="cls-1" d="M605.4,105.8c1.81-1.65,3.68-3.23,5.41-5a13.08,13.08,0,0,0,3.91-9c0-1-.64-2-1-3a20.32,20.32,0,0,0-2.6,1c-5.46,3-9.06,7.8-12.68,12.6-1.35,1.8-2.76,3.55-4,5.39-.24.34.14,1.06,0,1.54a46.32,46.32,0,0,1-2.1,6.42c-1.35,2.91-.73,5.76-.21,8.63a2.16,2.16,0,0,0,3.36,1.6c5.49-3.1,10.4-6.93,14-12.25a3.93,3.93,0,0,0,.26-1l-2.54-.22c3.94-2.4,7.46-4.86,12-4.91,1.68,0,2.56,2,1.61,3.84-2.26,4.47-4.9,8.76-6.93,13.33-1.77,4-4.75,7.37-5.34,11.9-.19,1.5-1.23,2.87-1.71,4.36a8.31,8.31,0,0,0,0,2.35l-1.18.86.07.58h3c-1.53,1.46-2.66,3-4.18,3.87a49.79,49.79,0,0,1-7.32,3c-2,.72-3.29-.34-3-2.46a13.82,13.82,0,0,1,1-4c3.21-7,6.53-13.94,9.81-20.91a3.59,3.59,0,0,0,.45-2,84.18,84.18,0,0,1-7.31,6,44.1,44.1,0,0,1-9,4.65c-3.19,1.16-7.64-1-8.3-3.86a21,21,0,0,1-.72-7.9,33.6,33.6,0,0,1,3.26-9.62,53.6,53.6,0,0,1,17.3-19.61c4.35-3,8.86-5.85,13.43-8.54a18.41,18.41,0,0,1,6.1-2.2c4-.69,6.7,2.76,5.27,6.61a70.46,70.46,0,0,1-3.19,7.42,7.05,7.05,0,0,1-2.42,2.41c-4.41,2.93-8.87,5.76-13.32,8.62-.09.06-.27,0-.41,0Z" transform="translate(-1)"/><path class="cls-1" d="M640.39,114c-.73.66-1.84,1.21-1.85,1.76,0,2.95-2.09,5-3.06,7.47a38.74,38.74,0,0,1-2,4.47c-2.21,4.09-6.36,5.47-10.29,7.06-1.27.51-2.46-.3-2-1.86a51,51,0,0,1,3.11-9.24,249,249,0,0,1,20.15-33.1,6.44,6.44,0,0,0,.4-.9c-1,.28-1.82.53-2.61.69a5.46,5.46,0,0,1-2.27,0c2.49-4,5.56-7.07,10.12-8.39a30.09,30.09,0,0,1,12.73-.92,7,7,0,0,1,2.13,1c2.11,1.15,4.77,1.85,6.19,3.57,3.35,4.09,2.2,10-1.87,13.74a54.59,54.59,0,0,1-18,10.79,8.73,8.73,0,0,0-1,.45c-.12.06-.2.2-.46.48,1.54,2.88,3.17,5.8,4.68,8.78.51,1,.64,2.21,1.08,3.26a21.28,21.28,0,0,0,1.74,3.29,3,3,0,0,1-.62,4.07,45.18,45.18,0,0,1-5.77,4.26c-1,.66-2.09.89-2.58-.92a94.09,94.09,0,0,0-3.31-10.53C643.86,120.2,642.08,117.31,640.39,114Zm2.53-5.71a8,8,0,0,0,2-.19c4.37-2,8.82-3.76,13-6a10.51,10.51,0,0,0,5.49-7,5.38,5.38,0,0,0-3.23-6.23,5.2,5.2,0,0,0-6.57,1.19c-.72.88-1.16,2-1.81,2.91-1.28,1.84-2.94,3.49-3.84,5.49a22.61,22.61,0,0,1-2,4.26A52.69,52.69,0,0,0,642.92,108.33Z" transform="translate(-1)"/><path class="cls-1" d="M502,86.41l1.28-.18a12,12,0,0,0,.76,3,1.71,1.71,0,0,1-.33,2.37c1.58,1.49,0,2.77-.28,4.12A34,34,0,0,1,497,110.09c-2.34,3.07-4.25,6.5-6.79,9.39a67.9,67.9,0,0,1-8.66,8.09c-3,2.42-6.5,4.29-9.56,6.67a4.58,4.58,0,0,1-3.82,1c-2.39-.61-4.75-1.35-6.25-3.88-4.37-7.36-3.76-14.73-.34-22.08,4.6-9.86,11.94-17.45,20.69-23.73a48.52,48.52,0,0,1,7.4-4.49c3.1-1.48,6.41-1.1,9.58.06C501.21,81.91,502.64,84.63,502,86.41Zm-9.21,9.53a56.7,56.7,0,0,0-1.3-6.47c-.76-2.46-2.31-3.21-4.76-2.44a6.61,6.61,0,0,0-3.2,2.06c-2.54,3.4-4.9,6.94-7.23,10.5a30.43,30.43,0,0,0-4.94,13.93,60.47,60.47,0,0,0,0,9.35c.19,3,2,4.09,4.84,2.94a9.57,9.57,0,0,0,3.45-2.21,66.56,66.56,0,0,0,6.3-7.77A39.22,39.22,0,0,0,492.76,95.94Z" transform="translate(-1)"/><path class="cls-1" d="M582.12,84.63l-.93,1.77,1.49-.17c.24,1.09.52,2.16.68,3.23a7.42,7.42,0,0,1-.09,1.74c0,.13-.22.32-.19.36,2,2.71-.55,5.1-1,7.45-.63,3.57-3,6.93-4.94,10.14a59.4,59.4,0,0,1-6.4,8.51,105.8,105.8,0,0,1-10.07,10,100.25,100.25,0,0,1-10.32,7.11,4.1,4.1,0,0,1-2.31.31c-2.77-.16-5.09-1-6.68-3.6-4.49-7.4-3.85-14.85-.38-22.29,5.28-11.32,14.28-19.3,24.23-26.33a13.84,13.84,0,0,1,10.52-2.55c1.92.35,4.56.59,5.25,3.39C581.1,84.08,581.71,84.31,582.12,84.63Zm-10.05,11a45.71,45.71,0,0,0-.78-4.94c-1.11-4.35-5.06-5.49-7.93-2a74.16,74.16,0,0,0-8.55,12.23c-3.58,6.74-5.37,14-4.14,21.82.47,2.95,2,4.27,4.73,3.16a10.78,10.78,0,0,0,4.11-2.74,63.87,63.87,0,0,0,7.43-9.92C569.82,108,572.18,102.48,572.06,95.61Z" transform="translate(-1)"/><path class="cls-1" d="M801.4,117c-3.95,1.07-7.25,1.93-10.53,2.86-1.76.5-3.86.67-5.15,1.77-2,1.66-3.24,4.08-5,6s-3.2,3.87-5.81,4.64a28.74,28.74,0,0,0-3.49,1.76,8.4,8.4,0,0,1-1.78.39c-.08-.68-.42-1.48-.19-2a20.56,20.56,0,0,1,2.38-4.38c6.83-8.93,13.63-17.89,20.67-26.66,4.76-5.94,9.69-11.78,14.93-17.29,2.2-2.32,5.65-2.89,9.33-3.28-.44,2.12-.77,3.8-1.14,5.47a161,161,0,0,0-4.16,29,97.41,97.41,0,0,0,.11,10.6c.13,1.75.29,3.87-2.2,4.86-1.62.65-3,2-4.44,3s-2.87.47-3.18-1.08a42,42,0,0,1-.68-7.48C801,122.76,801.24,120.33,801.4,117Zm2.71-19.55-.48-.25-9,12,.49.58c2.11-.45,4.24-.86,6.33-1.38a1.55,1.55,0,0,0,1-1C803,104.11,803.55,100.79,804.11,97.47Z" transform="translate(-1)"/><path class="cls-1" d="M692.92,117.42c-3.63,1-7.11.68-10.39,2.3-1.61.8-3.88.67-5.26,2-1.75,1.74-3.11,3.87-4.73,5.75s-3.27,4-5.95,4.8a31.14,31.14,0,0,0-3.49,1.77,6.69,6.69,0,0,1-1.77.27c-.07-.62-.37-1.32-.17-1.84a15.14,15.14,0,0,1,1.86-3.68c6.32-8.43,12.55-16.93,19.14-25.15,5.39-6.73,11.08-13.24,17-19.55,2.22-2.38,5.7-2.76,9.44-3.45-.86,3.94-1.77,7.28-2.28,10.68-1,6.58-1.71,13.2-2.6,19.79-.28,2-.74,4.07-1.11,6.1,0,.14-.14.32-.09.39,2,2.73,0,5.79.78,8.74.89,3.2-2.22,4.54-4.33,6.15a9.92,9.92,0,0,1-1.34.73c-3,1.59-4,1.25-4.62-2a32.9,32.9,0,0,1-.1-6.47c0-1.16.25-2.31.27-3.46S693,119,692.92,117.42Zm2.91-19.87-.49-.32-9,12,.51.58c2.11-.45,4.25-.84,6.33-1.41a2,2,0,0,0,1-1.39C694.81,103.83,695.3,100.68,695.83,97.54Z" transform="translate(-1)"/><path class="cls-1" d="M750.61,101.94c-1.26,1.55-2.61,3-3.77,4.66-1.53,2.13-3.62,2.88-6.14,3.21-3.59.47-7.15,1.18-10.69,2-1.88.43-3.35,1.45-3.41,3.79,0,.74-.93,1.42-1.29,2.2-1.64,3.55-3.19,7.14-4.87,10.68a4.92,4.92,0,0,1-1.79,2.17c-2.87,1.58-5.85,3-9.31,4.7-.14-1.28-.56-2.35-.28-3.19a50.42,50.42,0,0,1,3.27-8.28c3.6-6.59,7.39-13.09,11.25-19.53,2.13-3.55,4.55-6.92,6.83-10.38a8.05,8.05,0,0,0,.53-1.19c-3.29-.15-3.49-.53-2-3.43a9.71,9.71,0,0,1,7-5.45c4.84-.85,9.73-1.43,14.62-2,3.35-.41,6.72-.73,10.09-.94a24.31,24.31,0,0,1,4,.4l.3.65a39.74,39.74,0,0,0-4.35,4.11c-2.13,2.68-5,3.13-8.07,3.39-2.74.23-5.48.59-8.2,1-2.39.38-3.87,1.95-4.89,4.07a6.53,6.53,0,0,1-1.29,1.41c-1.42,1.5-1.33,4-3.35,5.14-.27.15,0,1.17,0,1.57l15.81-1.34Z" transform="translate(-1)"/><path class="cls-1" d="M416.58,134.89a9.59,9.59,0,0,1,0-3,51.69,51.69,0,0,1,3.22-8.07c3.6-6.59,7.39-13.09,11.23-19.55,2.33-3.91,4.91-7.68,7.41-11.56l-2.82-.32a9.63,9.63,0,0,1,7.54-8.49c4.89-1,9.87-1.5,14.83-2.11q5.13-.63,10.3-.93a28.26,28.26,0,0,1,4.59.56A52.48,52.48,0,0,0,468.18,86c-2.11,2.64-4.93,3.2-8,3.43-2.81.21-5.62.63-8.41,1-2.35.34-3.61,2-4.71,3.95-.49.85-1.2,1.57-1.77,2.38-1,1.43-2,2.84-2.93,4.34-.24.41,0,1.09,0,1.47l16.43-1.33c-1.78,2.16-3.13,3.64-4.31,5.25a8.26,8.26,0,0,1-6.13,3.25c-3.59.47-7.15,1.18-10.69,2-1.88.42-3.27,1.46-3.38,3.74,0,.76-.93,1.44-1.29,2.22-1.67,3.55-3.25,7.15-4.95,10.69a4.65,4.65,0,0,1-1.64,2c-2.92,1.64-5.94,3.12-8.92,4.65Z" transform="translate(-1)"/><path class="cls-1" d="M510.32,91.79c2.84-3.53,4.63-7.16,9.35-8a119.39,119.39,0,0,1,21.86-2.08c4,0,7.93.55,12.35.89a41.86,41.86,0,0,0-4.41,3.72,7.74,7.74,0,0,1-7.06,2.53c-1.51-.14-3-.12-4.56-.2-1.74-.1-2.57,1-3.33,2.34-1.61,2.77-3.44,5.42-4.86,8.28s-4.27,5.14-4.67,8.63c-1.73.36-.08,2.94-2,3.15,1.13,2.39-2,3-2.12,5.11,0,1.41-2.2,2.75-2.24,4.16-.06,2-1.55,3.17-2,4.88a39.52,39.52,0,0,1-2.34,5.56,1.12,1.12,0,0,1-.58.55c-2.49.85-5,1.55-7.46,2.54a2.91,2.91,0,0,1-4.08-1.24c7-14.67,14.84-29.06,24.7-43C520.95,90,516.11,92.36,510.32,91.79Z" transform="translate(-1)"/><path class="cls-1" d="M746.2,133c.78-2.33,1.15-4.38,2.1-6.09,5.82-10.47,11.76-20.87,17.68-31.29.57-1,1.38-1.9,1.87-2.94,2.8-5.88,7.69-8.81,13.86-10,1.56-.3,2.29.3,1.74,1.78-.63,1.71-1.62,3.3-2.38,5-.5,1.08-.64,2.41-1.36,3.29-2.33,2.85-3.62,6.27-5.43,9.39-1,1.67-2.34,3.1-3.44,4.7s-2.28,3.4-3.28,5.18c-2.17,3.86-4.21,7.8-6.37,11.66a19.83,19.83,0,0,1-3.12,4.71c-1.17,1.13-2.92,1.69-4.45,2.42s-3,1.4-4.61,2A13.63,13.63,0,0,1,746.2,133Z" transform="translate(-1)"/><path class="cls-1" d="M36.22,14.31c-3.42,0-6.83,0-10.25,0-2.25,0-3.14.93-3.22,3.19-.05,1.45,0,2.91,0,4.36C22.67,24,21.65,25.13,20,25c-1.89-.11-2.65-1.29-2.65-3.07s-.06-3.49,0-5.23A7.93,7.93,0,0,1,25.1,8.85c7.41-.15,14.83-.13,22.25,0a7.91,7.91,0,0,1,7.83,7.37,47.79,47.79,0,0,1,0,6.1A2.53,2.53,0,0,1,52.46,25c-1.75,0-2.6-1.13-2.64-2.84s0-3.2,0-4.8c-.07-2.13-1-3-3.1-3.07C43.2,14.28,39.71,14.31,36.22,14.31Z" transform="translate(-1)"/><path class="cls-1" d="M163.52,101.05A48.74,48.74,0,1,1,114.89,52.2,48.83,48.83,0,0,1,163.52,101.05Zm-48.69,43.21a43.32,43.32,0,1,0-43.35-43.32A43.4,43.4,0,0,0,114.84,144.26Z" transform="translate(-1)"/></svg>