<?xml version="1.0" encoding="iso-8859-1"?>
<!-- Generator: Adobe Illustrator 17.1.0, SVG Export Plug-In . SVG Version: 6.00 Build 0)  -->
<!DOCTYPE svg PUBLIC "-//W3C//DTD SVG 1.1//EN" "http://www.w3.org/Graphics/SVG/1.1/DTD/svg11.dtd">
<svg version="1.1" id="Capa_1" xmlns="http://www.w3.org/2000/svg" xmlns:xlink="http://www.w3.org/1999/xlink" x="0px" y="0px"
	 viewBox="0 0 455 455" style="enable-background:new 0 0 455 455;" xml:space="preserve">
<g>
	<path d="M277.5,135.517c-59.275,0-107.5,48.224-107.5,107.5s48.225,107.5,107.5,107.5S385,302.292,385,243.017
		S336.775,135.517,277.5,135.517z M277.5,335.517c-51.005,0-92.5-41.495-92.5-92.5s41.495-92.5,92.5-92.5s92.5,41.495,92.5,92.5
		S328.505,335.517,277.5,335.517z"/>
	<path d="M277.5,175.517c-37.22,0-67.5,30.28-67.5,67.5s30.28,67.5,67.5,67.5s67.5-30.28,67.5-67.5S314.72,175.517,277.5,175.517z
		 M277.5,295.517c-28.948,0-52.5-23.552-52.5-52.5s23.552-52.5,52.5-52.5s52.5,23.552,52.5,52.5S306.448,295.517,277.5,295.517z"/>
	<path d="M293.409,216.5c-2.929,2.929-2.929,7.678,0.001,10.607c4.24,4.24,6.575,9.891,6.575,15.91s-2.335,11.669-6.576,15.91
		c-4.24,4.241-9.89,6.576-15.909,6.576s-11.669-2.335-15.909-6.576c-2.929-2.928-7.678-2.93-10.606,0
		c-2.93,2.929-2.93,7.677-0.001,10.607c7.073,7.074,16.49,10.969,26.517,10.969s19.443-3.896,26.516-10.969
		c7.074-7.074,10.97-16.491,10.97-26.517s-3.896-19.443-10.97-26.517C301.088,213.571,296.339,213.572,293.409,216.5z"/>
	<path d="M417.5,95h-380C16.822,95,0,111.823,0,132.5v220C0,373.177,16.822,390,37.5,390h380c20.678,0,37.5-16.823,37.5-37.5v-220
		C455,111.823,438.178,95,417.5,95z M440,352.5c0,12.406-10.094,22.5-22.5,22.5h-380C25.094,375,15,364.906,15,352.5v-220
		c0-12.406,10.094-22.5,22.5-22.5h380c12.406,0,22.5,10.094,22.5,22.5V352.5z"/>
	<path d="M117.5,135h-70c-4.143,0-7.5,3.358-7.5,7.5v50.179c0,4.142,3.357,7.5,7.5,7.5h70c4.143,0,7.5-3.358,7.5-7.5V142.5
		C125,138.358,121.643,135,117.5,135z M110,185.179H55V150h55V185.179z"/>
	<path d="M57.5,80h50c4.143,0,7.5-3.358,7.5-7.5s-3.357-7.5-7.5-7.5h-50c-4.143,0-7.5,3.358-7.5,7.5S53.357,80,57.5,80z"/>
</g>
<g>
</g>
<g>
</g>
<g>
</g>
<g>
</g>
<g>
</g>
<g>
</g>
<g>
</g>
<g>
</g>
<g>
</g>
<g>
</g>
<g>
</g>
<g>
</g>
<g>
</g>
<g>
</g>
<g>
</g>
</svg>
