<?xml version="1.0" encoding="utf-8"?>
<!-- Generator: Adobe Illustrator 16.0.0, SVG Export Plug-In . SVG Version: 6.00 Build 0)  -->
<!DOCTYPE svg PUBLIC "-//W3C//DTD SVG 1.1//EN" "http://www.w3.org/Graphics/SVG/1.1/DTD/svg11.dtd">
<svg version="1.1" id="Capa_1" xmlns="http://www.w3.org/2000/svg" xmlns:xlink="http://www.w3.org/1999/xlink" x="0px" y="0px"
	 width="453px" height="144px" viewBox="44.5 0 453 144" enable-background="new 44.5 0 453 144" xml:space="preserve">
<g>
	<path fill="#FFFFFF" d="M166.205,18.197c-7.499,0-13.6,6.1-13.6,13.599v6.134l-7.095,1.524v-0.17c0-0.979-0.794-1.774-1.773-1.774
		s-1.773,0.794-1.773,1.774v0.932l-7.096,1.524v-0.169c0-0.98-0.794-1.774-1.773-1.774s-1.773,0.794-1.773,1.774v0.931l-7.095,1.524
		v-0.169c0-0.979-0.794-1.773-1.774-1.773s-1.774,0.794-1.774,1.773v0.932l-7.095,1.524v-0.17c0-0.979-0.794-1.774-1.774-1.774
		s-1.773,0.794-1.773,1.774v0.932l-7.095,1.524v-0.17c0-0.979-0.794-1.773-1.774-1.773s-1.774,0.794-1.774,1.773v0.932l-7.095,1.524
		v-4.48l4.542-9.085c0.124-0.247,0.188-0.518,0.188-0.793c0-6.194-5.04-11.233-11.233-11.233c-0.98,0-1.774,0.794-1.774,1.774v18.92
		c0,0.979,0.794,1.773,1.774,1.773h2.956v4.494h-5.321c-0.98,0-1.774,0.794-1.774,1.773v5.321h-7.686
		c-0.979,0-1.773,0.794-1.773,1.773v16.555c0,0.979,0.794,1.773,1.773,1.773h7.686v5.321c0,0.979,0.794,1.774,1.774,1.774h5.321
		v16.79h-7.686c-0.98,0-1.774,0.795-1.774,1.774v7.096c0,0.979,0.794,1.772,1.774,1.772h7.686v10.052
		c0,0.979,0.794,1.773,1.773,1.773c0.98,0,1.774-0.794,1.774-1.773v-10.052h60.425c0.873,6.663,6.582,11.825,13.48,11.825
		c7.497,0,13.598-6.101,13.598-13.598V31.796C179.803,24.297,173.702,18.197,166.205,18.197z M152.605,95.348l-8.496-1.823
		c-0.524-0.111-1.07,0.019-1.487,0.354c-0.417,0.338-0.658,0.845-0.658,1.38v2.361c0,0.979,0.794,1.773,1.773,1.773
		s1.773-0.794,1.773-1.773v-0.167l7.095,1.521v4.36h-24.452l24.452-24.451V95.348z M120.679,48.417v40.071l-7.095-1.524V49.941
		L120.679,48.417z M110.037,50.704v35.499l-7.095-1.524V52.227L110.037,50.704z M99.394,83.915l-7.095-1.523V54.514l7.095-1.524
		V83.915z M87.569,38.299h0.591c0.979,0,1.774-0.794,1.774-1.774c0-0.979-0.794-1.773-1.774-1.773h-0.591v-5.706
		c3.262,0.773,5.726,3.63,5.902,7.081l-4.042,8.084h-1.86V38.299z M75.745,75.902V62.895h5.912v13.007H75.745z M85.205,55.8h3.547
		v27.197h-3.547V55.8z M92.299,86.02l7.095,1.524v0.933c0,0.979,0.794,1.772,1.774,1.772s1.774-0.794,1.774-1.772v-0.171
		l7.095,1.524v0.932c0,0.979,0.794,1.773,1.773,1.773s1.774-0.794,1.774-1.773v-0.17l7.095,1.524v0.932
		c0,0.979,0.794,1.774,1.774,1.774s1.774-0.795,1.774-1.774v-0.17l2.638,0.566c0.125,0.027,0.251,0.041,0.374,0.041
		c0.818,0,1.554-0.57,1.732-1.402c0.205-0.958-0.404-1.9-1.362-2.106l-3.382-0.727V47.655l7.095-1.524v39.72
		c0,0.98,0.794,1.774,1.773,1.774s1.773-0.794,1.773-1.774V45.369l7.096-1.524v31.366c0,0.979,0.794,1.773,1.773,1.773
		s1.773-0.794,1.773-1.773V43.083l7.095-1.524v32.307l-29.469,29.469H92.299V86.02z M82.839,106.884h69.766v3.547H82.839V106.884z
		 M176.256,112.205c0,5.541-4.51,10.051-10.051,10.051c-5.544,0-10.052-4.51-10.052-10.051V97.561c0-0.003,0-0.007,0-0.011V74.603
		c0,0,0-0.002,0-0.003V39.357c0-0.005,0-0.01,0-0.015v-7.546c0-5.542,4.508-10.051,10.052-10.051
		c5.541,0,10.051,4.509,10.051,10.051V112.205z"/>
	<path fill="#FFFFFF" d="M166.205,105.701c-3.586,0-6.504,2.917-6.504,6.504c0,3.586,2.918,6.503,6.504,6.503
		s6.503-2.917,6.503-6.503C172.708,108.618,169.791,105.701,166.205,105.701z M166.205,115.16c-1.631,0-2.957-1.325-2.957-2.955
		c0-1.631,1.326-2.957,2.957-2.957c1.63,0,2.955,1.326,2.955,2.957C169.16,113.835,167.835,115.16,166.205,115.16z"/>
	<path fill="#FFFFFF" d="M166.205,25.292c-3.586,0-6.504,2.917-6.504,6.504c0,3.586,2.918,6.503,6.504,6.503
		s6.503-2.917,6.503-6.503C172.708,28.209,169.791,25.292,166.205,25.292z M166.205,34.752c-1.631,0-2.957-1.326-2.957-2.956
		c0-1.63,1.326-2.957,2.957-2.957c1.63,0,2.955,1.326,2.955,2.957C169.16,33.426,167.835,34.752,166.205,34.752z"/>
</g>
<g>
	<path fill="#FFFFFF" d="M222.78,46.857c2.22,1.935,3.33,4.658,3.33,8.167c0,3.72-1.11,6.608-3.33,8.663
		c-2.221,2.055-5.341,3.083-9.36,3.083h-5.625v8.73h-8.235V43.955h13.86C217.439,43.955,220.56,44.922,222.78,46.857z
		 M216.907,58.94c0.915-0.839,1.373-2.055,1.373-3.645c0-1.53-0.458-2.707-1.373-3.532s-2.213-1.238-3.893-1.238h-5.22V60.2h5.22
		C214.694,60.2,215.992,59.78,216.907,58.94z"/>
	<path fill="#FFFFFF" d="M252.907,53.36c1.604,1.681,2.407,3.945,2.407,6.795V75.5h-8.01V62.45c0-1.38-0.368-2.467-1.103-3.263
		c-0.735-0.794-1.748-1.192-3.037-1.192c-1.471,0.03-2.633,0.548-3.488,1.552c-0.854,1.005-1.282,2.318-1.282,3.938V75.5h-8.01
		V42.11h8.01v13.005c0.87-1.41,1.987-2.475,3.353-3.195c1.365-0.72,2.932-1.08,4.702-1.08
		C249.149,50.84,251.302,51.68,252.907,53.36z"/>
	<path fill="#FFFFFF" d="M278.984,52.438c2.01,1.035,3.569,2.49,4.68,4.365c1.109,1.875,1.665,4.043,1.665,6.502
		c0,2.49-0.556,4.673-1.665,6.547c-1.11,1.875-2.67,3.33-4.68,4.364c-2.011,1.035-4.336,1.553-6.975,1.553
		c-2.641,0-4.966-0.518-6.976-1.553c-2.01-1.034-3.563-2.489-4.657-4.364c-1.096-1.875-1.643-4.057-1.643-6.547
		c0-2.459,0.547-4.627,1.643-6.502c1.095-1.875,2.647-3.33,4.657-4.365s4.335-1.553,6.976-1.553
		C274.648,50.885,276.974,51.402,278.984,52.438z M268.229,59.03c-0.961,1.11-1.44,2.565-1.44,4.365c0,1.83,0.479,3.3,1.44,4.41
		c0.96,1.11,2.22,1.665,3.78,1.665c1.589,0,2.864-0.555,3.824-1.665s1.44-2.58,1.44-4.41c0-1.8-0.488-3.255-1.463-4.365
		c-0.975-1.109-2.243-1.665-3.802-1.665C270.449,57.365,269.189,57.92,268.229,59.03z"/>
	<path fill="#FFFFFF" d="M305.264,74.24c-0.9,0.51-1.936,0.908-3.105,1.192s-2.355,0.427-3.555,0.427
		c-2.4,0-4.343-0.689-5.828-2.069c-1.484-1.379-2.228-3.285-2.228-5.715v-10.44h-3.375v-5.31h3.375v-6.75h7.966v6.75h6.3v5.31h-6.3
		v9.18c0,1.71,0.704,2.565,2.114,2.565c0.87,0,1.905-0.27,3.105-0.81L305.264,74.24z"/>
	<path fill="#FFFFFF" d="M327.224,52.438c2.01,1.035,3.569,2.49,4.68,4.365c1.109,1.875,1.665,4.043,1.665,6.502
		c0,2.49-0.556,4.673-1.665,6.547c-1.11,1.875-2.67,3.33-4.68,4.364c-2.011,1.035-4.336,1.553-6.975,1.553
		c-2.641,0-4.966-0.518-6.976-1.553c-2.01-1.034-3.563-2.489-4.657-4.364c-1.096-1.875-1.643-4.057-1.643-6.547
		c0-2.459,0.547-4.627,1.643-6.502c1.095-1.875,2.647-3.33,4.657-4.365s4.335-1.553,6.976-1.553
		C322.888,50.885,325.213,51.402,327.224,52.438z M316.469,59.03c-0.961,1.11-1.44,2.565-1.44,4.365c0,1.83,0.479,3.3,1.44,4.41
		c0.96,1.11,2.22,1.665,3.78,1.665c1.589,0,2.864-0.555,3.824-1.665s1.44-2.58,1.44-4.41c0-1.8-0.488-3.255-1.463-4.365
		c-0.975-1.109-2.243-1.665-3.802-1.665C318.688,57.365,317.429,57.92,316.469,59.03z"/>
	<path fill="#FFFFFF" d="M376.497,53.36c1.59,1.681,2.386,3.945,2.386,6.795V75.5h-8.011V62.45c0-1.38-0.359-2.467-1.079-3.263
		c-0.721-0.794-1.695-1.192-2.926-1.192c-1.41,0.03-2.527,0.548-3.353,1.552c-0.825,1.005-1.237,2.318-1.237,3.938V75.5h-8.01V62.45
		c0-1.38-0.36-2.467-1.08-3.263c-0.72-0.794-1.695-1.192-2.925-1.192c-1.41,0.03-2.535,0.548-3.375,1.552
		c-0.841,1.005-1.26,2.318-1.26,3.938V75.5h-7.966V51.155h7.966v4.005c0.839-1.41,1.927-2.482,3.262-3.218
		c1.335-0.735,2.888-1.103,4.658-1.103c1.979,0,3.674,0.48,5.085,1.44c1.409,0.96,2.414,2.295,3.015,4.005
		c0.78-1.8,1.897-3.157,3.353-4.073c1.455-0.915,3.173-1.373,5.152-1.373C372.792,50.84,374.907,51.68,376.497,53.36z"/>
	<path fill="#FFFFFF" d="M403.138,53.158c1.859,1.545,2.805,3.712,2.835,6.502V75.5h-7.875v-2.745
		c-1.62,2.07-4.065,3.104-7.335,3.104c-2.581,0-4.612-0.697-6.098-2.092c-1.485-1.395-2.228-3.232-2.228-5.513
		c0-2.31,0.803-4.11,2.407-5.4c1.604-1.29,3.907-1.95,6.908-1.98h6.345v-0.27c0-1.17-0.398-2.07-1.192-2.7
		c-0.796-0.63-1.943-0.945-3.442-0.945c-1.021,0-2.168,0.165-3.442,0.495c-1.276,0.331-2.559,0.81-3.848,1.44l-2.205-5.4
		c1.979-0.9,3.877-1.567,5.692-2.002c1.814-0.435,3.697-0.653,5.647-0.653C398.667,50.84,401.277,51.613,403.138,53.158z
		 M396.388,69.538c0.899-0.585,1.47-1.342,1.71-2.272V65.15h-4.771c-2.25,0-3.375,0.84-3.375,2.52c0,0.84,0.293,1.508,0.878,2.002
		c0.585,0.495,1.388,0.743,2.407,0.743C394.438,70.415,395.487,70.123,396.388,69.538z"/>
	<path fill="#FFFFFF" d="M433.85,53.36c1.604,1.681,2.408,3.945,2.408,6.795V75.5h-7.965V62.45c0-1.38-0.376-2.467-1.125-3.263
		c-0.751-0.794-1.756-1.192-3.016-1.192c-1.32,0.03-2.407,0.465-3.263,1.305c-0.854,0.84-1.357,1.951-1.507,3.33V75.5h-8.011V51.155
		h8.011v3.96c0.869-1.41,1.986-2.475,3.353-3.195c1.364-0.72,2.932-1.08,4.702-1.08C430.107,50.84,432.245,51.68,433.85,53.36z"/>
	<path fill="#FFFFFF" d="M448.655,41.143c0.794,0.795,1.192,1.822,1.192,3.083c0,1.23-0.398,2.25-1.192,3.06
		c-0.796,0.81-1.808,1.215-3.038,1.215s-2.242-0.405-3.037-1.215s-1.192-1.83-1.192-3.06c0-1.26,0.397-2.288,1.192-3.083
		c0.795-0.794,1.807-1.192,3.037-1.192S447.859,40.348,448.655,41.143z M441.702,51.155h7.966V75.5h-7.966V51.155z"/>
	<path fill="#FFFFFF" d="M474.597,53.158c1.859,1.545,2.805,3.712,2.835,6.502V75.5h-7.875v-2.745
		c-1.62,2.07-4.065,3.104-7.335,3.104c-2.581,0-4.612-0.697-6.098-2.092c-1.485-1.395-2.228-3.232-2.228-5.513
		c0-2.31,0.803-4.11,2.407-5.4c1.604-1.29,3.907-1.95,6.908-1.98h6.345v-0.27c0-1.17-0.398-2.07-1.192-2.7
		c-0.796-0.63-1.943-0.945-3.442-0.945c-1.021,0-2.168,0.165-3.442,0.495c-1.276,0.331-2.559,0.81-3.848,1.44l-2.205-5.4
		c1.979-0.9,3.877-1.567,5.692-2.002c1.814-0.435,3.697-0.653,5.647-0.653C470.126,50.84,472.736,51.613,474.597,53.158z
		 M467.847,69.538c0.899-0.585,1.47-1.342,1.71-2.272V65.15h-4.771c-2.25,0-3.375,0.84-3.375,2.52c0,0.84,0.293,1.508,0.878,2.002
		c0.585,0.495,1.388,0.743,2.407,0.743C465.896,70.415,466.946,70.123,467.847,69.538z"/>
</g>
<g>
	<path fill="#FFFFFF" d="M208.88,83.23c0.946,0.807,1.42,1.949,1.42,3.43c0,1.533-0.474,2.72-1.42,3.56s-2.287,1.261-4.02,1.261
		h-3.78V96h-1.38V82.02h5.16C206.593,82.02,207.934,82.424,208.88,83.23z M207.89,89.33c0.727-0.606,1.091-1.483,1.091-2.63
		c0-1.12-0.36-1.974-1.08-2.561c-0.721-0.586-1.754-0.88-3.101-0.88h-3.72v6.98h3.72C206.133,90.24,207.163,89.937,207.89,89.33z"/>
	<path fill="#FFFFFF" d="M225.28,82.02h1.38v6.4h8.74v-6.4h1.38V96h-1.38v-6.34h-8.74V96h-1.38V82.02z"/>
	<path fill="#FFFFFF" d="M263.01,82.85c1.113,0.634,1.997,1.49,2.65,2.57s0.98,2.267,0.98,3.561c0,1.293-0.327,2.486-0.98,3.579
		c-0.653,1.094-1.537,1.96-2.65,2.601c-1.113,0.64-2.337,0.96-3.67,0.96s-2.557-0.32-3.67-0.96
		c-1.113-0.641-1.997-1.507-2.649-2.601c-0.653-1.093-0.98-2.286-0.98-3.579c0-1.294,0.327-2.48,0.98-3.561
		c0.652-1.08,1.536-1.937,2.649-2.57c1.113-0.633,2.337-0.949,3.67-0.949S261.896,82.217,263.01,82.85z M256.4,83.92
		c-0.907,0.521-1.627,1.227-2.16,2.12s-0.8,1.873-0.8,2.94c0,1.066,0.267,2.053,0.8,2.96c0.533,0.906,1.253,1.623,2.16,2.149
		c0.906,0.527,1.893,0.79,2.96,0.79c1.053,0,2.03-0.263,2.93-0.79c0.9-0.526,1.617-1.243,2.15-2.149c0.533-0.907,0.8-1.894,0.8-2.96
		c0-1.067-0.267-2.047-0.8-2.94s-1.25-1.6-2.15-2.12c-0.899-0.52-1.877-0.78-2.93-0.78C258.293,83.14,257.307,83.4,256.4,83.92z"/>
	<path fill="#FFFFFF" d="M279.78,82h10.62v1.26h-4.62V96h-1.38V83.26h-4.62V82z"/>
	<path fill="#FFFFFF" d="M313.729,82.85c1.113,0.634,1.997,1.49,2.65,2.57s0.98,2.267,0.98,3.561c0,1.293-0.327,2.486-0.98,3.579
		c-0.653,1.094-1.537,1.96-2.65,2.601c-1.113,0.64-2.337,0.96-3.67,0.96s-2.557-0.32-3.67-0.96
		c-1.113-0.641-1.997-1.507-2.649-2.601c-0.653-1.093-0.98-2.286-0.98-3.579c0-1.294,0.327-2.48,0.98-3.561
		c0.652-1.08,1.536-1.937,2.649-2.57c1.113-0.633,2.337-0.949,3.67-0.949S312.616,82.217,313.729,82.85z M307.12,83.92
		c-0.907,0.521-1.627,1.227-2.16,2.12s-0.8,1.873-0.8,2.94c0,1.066,0.267,2.053,0.8,2.96c0.533,0.906,1.253,1.623,2.16,2.149
		c0.906,0.527,1.893,0.79,2.96,0.79c1.053,0,2.03-0.263,2.93-0.79c0.9-0.526,1.617-1.243,2.15-2.149c0.533-0.907,0.8-1.894,0.8-2.96
		c0-1.067-0.267-2.047-0.8-2.94s-1.25-1.6-2.15-2.12c-0.899-0.52-1.877-0.78-2.93-0.78C309.013,83.14,308.026,83.4,307.12,83.92z"/>
	<path fill="#FFFFFF" d="M342.16,89.16h1.221v5.12c-0.681,0.573-1.471,1.023-2.37,1.35c-0.9,0.327-1.817,0.49-2.75,0.49
		c-1.32,0-2.537-0.32-3.65-0.96c-1.113-0.641-1.997-1.507-2.649-2.601c-0.653-1.093-0.98-2.286-0.98-3.579
		c0-1.294,0.327-2.48,0.98-3.561c0.652-1.08,1.543-1.937,2.67-2.57c1.126-0.633,2.356-0.949,3.689-0.949
		c0.947,0,1.863,0.166,2.75,0.5c0.887,0.333,1.67,0.8,2.351,1.399l-0.8,0.98c-0.574-0.533-1.234-0.943-1.98-1.23
		c-0.747-0.286-1.52-0.43-2.32-0.43c-1.08,0-2.073,0.264-2.979,0.79c-0.907,0.526-1.627,1.236-2.16,2.13s-0.8,1.873-0.8,2.94
		c0,1.079,0.267,2.069,0.8,2.97c0.533,0.899,1.257,1.613,2.17,2.14c0.913,0.527,1.91,0.79,2.99,0.79c0.666,0,1.33-0.11,1.99-0.33
		c0.659-0.22,1.27-0.53,1.829-0.93V89.16z"/>
	<path fill="#FFFFFF" d="M368.88,96l-3.02-4.56c-0.428,0.026-0.754,0.04-0.98,0.04h-3.84V96h-1.38V82.02h5.22
		c1.747,0,3.097,0.404,4.05,1.211s1.431,1.949,1.431,3.43c0,1.16-0.28,2.127-0.841,2.899c-0.56,0.773-1.359,1.313-2.399,1.62
		l3.359,4.82H368.88z M364.88,90.24c1.333,0,2.36-0.304,3.08-0.91s1.08-1.483,1.08-2.63c0-1.12-0.36-1.974-1.08-2.561
		c-0.72-0.586-1.747-0.88-3.08-0.88h-3.84v6.98H364.88z"/>
	<path fill="#FFFFFF" d="M396.779,96l-1.659-3.72h-7.761L385.72,96h-1.48l6.301-13.98h1.439l6.3,13.98H396.779z M387.899,91.04
		h6.681l-3.36-7.56L387.899,91.04z"/>
	<path fill="#FFFFFF" d="M421.979,83.23c0.946,0.807,1.42,1.949,1.42,3.43c0,1.533-0.474,2.72-1.42,3.56s-2.287,1.261-4.02,1.261
		h-3.78V96h-1.38V82.02h5.16C419.692,82.02,421.033,82.424,421.979,83.23z M420.989,89.33c0.727-0.606,1.091-1.483,1.091-2.63
		c0-1.12-0.36-1.974-1.08-2.561c-0.721-0.586-1.754-0.88-3.101-0.88h-3.72v6.98h3.72C419.232,90.24,420.263,89.937,420.989,89.33z"
		/>
	<path fill="#FFFFFF" d="M438.38,82.02h1.38v6.4h8.74v-6.4h1.38V96h-1.38v-6.34h-8.74V96h-1.38V82.02z"/>
	<path fill="#FFFFFF" d="M476.62,82.02l-5.38,9V96h-1.381v-4.98l-5.46-9h1.44l4.72,7.521l4.62-7.521H476.62z"/>
</g>
</svg>
