<?xml version="1.0" encoding="iso-8859-1"?>
<!-- Generator: Adobe Illustrator 17.1.0, SVG Export Plug-In . SVG Version: 6.00 Build 0)  -->
<!DOCTYPE svg PUBLIC "-//W3C//DTD SVG 1.1//EN" "http://www.w3.org/Graphics/SVG/1.1/DTD/svg11.dtd">
<svg version="1.1" id="Capa_1" xmlns="http://www.w3.org/2000/svg" xmlns:xlink="http://www.w3.org/1999/xlink" x="0px" y="0px"
	 viewBox="0 0 455 455" style="enable-background:new 0 0 455 455;" xml:space="preserve">
<g>
	<path d="M227.5,88C150.58,88,88,150.58,88,227.5S150.58,367,227.5,367c76.921,0,139.5-62.58,139.5-139.5S304.421,88,227.5,88z
		 M105.817,253.857H220v22.714H113.087C109.968,269.327,107.521,261.729,105.817,253.857z M103,227.5
		c0-3.829,0.183-7.615,0.523-11.357H220v22.714H103.523C103.183,235.115,103,231.329,103,227.5z M220,125.714h-64.111
		c18.351-12.95,40.344-21.063,64.111-22.482V125.714z M220,201.143H105.817c1.704-7.872,4.151-15.47,7.27-22.714H220V201.143z
		 M220,351.768c-23.768-1.419-45.76-9.532-64.111-22.482H220V351.768z M138.327,140.714H220v22.714h-99.209
		C125.757,155.188,131.652,147.571,138.327,140.714z M120.791,291.571H220v22.714h-81.673
		C131.652,307.429,125.757,299.812,120.791,291.571z M235,351.768V103.232c65.17,3.892,117,58.137,117,124.268
		S300.17,347.875,235,351.768z"/>
	<path d="M227.5,382c-4.142,0-7.5,3.358-7.5,7.5v58c0,4.142,3.358,7.5,7.5,7.5c4.143,0,7.5-3.358,7.5-7.5v-58
		C235,385.358,231.643,382,227.5,382z"/>
	<path d="M328.789,354.152c-2.433-3.351-7.124-4.092-10.476-1.66c-3.352,2.435-4.094,7.125-1.659,10.476l34.091,46.923
		c1.467,2.02,3.754,3.092,6.073,3.092c1.528,0,3.071-0.466,4.402-1.433c3.352-2.435,4.094-7.125,1.659-10.476L328.789,354.152z"/>
	<path d="M439.05,288.351l-55.161-17.923c-3.936-1.28-8.171,0.876-9.45,4.815c-1.28,3.939,0.876,8.171,4.815,9.451l55.161,17.923
		c0.77,0.25,1.551,0.369,2.319,0.369c3.161,0,6.102-2.015,7.131-5.184C445.146,293.862,442.989,289.631,439.05,288.351z"/>
	<path d="M381.569,184.941c0.769,0,1.55-0.119,2.319-0.369l55.161-17.923c3.939-1.28,6.096-5.511,4.815-9.451
		c-1.279-3.94-5.516-6.096-9.45-4.815l-55.161,17.923c-3.939,1.28-6.096,5.511-4.815,9.451
		C375.468,182.927,378.408,184.941,381.569,184.941z"/>
	<path d="M318.313,102.507c1.331,0.967,2.873,1.433,4.402,1.433c2.318,0,4.606-1.072,6.073-3.092l34.091-46.923
		c2.435-3.351,1.692-8.041-1.659-10.476c-3.349-2.433-8.041-1.692-10.476,1.66l-34.091,46.923
		C314.22,95.382,314.962,100.072,318.313,102.507z"/>
	<path d="M227.5,73c4.143,0,7.5-3.358,7.5-7.5v-58c0-4.142-3.357-7.5-7.5-7.5c-4.142,0-7.5,3.358-7.5,7.5v58
		C220,69.642,223.358,73,227.5,73z"/>
	<path d="M126.211,100.848c1.468,2.02,3.755,3.092,6.074,3.092c1.528,0,3.071-0.466,4.402-1.433
		c3.351-2.435,4.094-7.125,1.659-10.476l-34.091-46.923c-2.435-3.351-7.124-4.094-10.476-1.659
		c-3.351,2.435-4.094,7.125-1.659,10.476L126.211,100.848z"/>
	<path d="M75.747,170.307l-55.161-17.923c-3.942-1.283-8.171,0.876-9.451,4.815c-1.28,3.939,0.876,8.171,4.815,9.451l55.161,17.923
		c0.771,0.25,1.551,0.369,2.319,0.369c3.162,0,6.102-2.015,7.131-5.184C81.842,175.818,79.686,171.586,75.747,170.307z"/>
	<path d="M71.111,270.428L15.95,288.351c-3.939,1.28-6.095,5.511-4.815,9.451c1.03,3.169,3.97,5.184,7.131,5.184
		c0.768,0,1.549-0.119,2.319-0.369l55.161-17.923c3.939-1.28,6.095-5.511,4.815-9.451C79.282,271.303,75.049,269.146,71.111,270.428
		z"/>
	<path d="M136.687,352.493c-3.352-2.434-8.042-1.692-10.476,1.66L92.12,401.076c-2.435,3.351-1.692,8.041,1.659,10.476
		c1.331,0.967,2.874,1.433,4.402,1.433c2.319,0,4.606-1.072,6.074-3.092l34.091-46.923
		C140.781,359.618,140.038,354.928,136.687,352.493z"/>
</g>
<g>
</g>
<g>
</g>
<g>
</g>
<g>
</g>
<g>
</g>
<g>
</g>
<g>
</g>
<g>
</g>
<g>
</g>
<g>
</g>
<g>
</g>
<g>
</g>
<g>
</g>
<g>
</g>
<g>
</g>
</svg>
