<?xml version="1.0" encoding="iso-8859-1"?>
<!-- Generator: Adobe Illustrator 17.1.0, SVG Export Plug-In . SVG Version: 6.00 Build 0)  -->
<!DOCTYPE svg PUBLIC "-//W3C//DTD SVG 1.1//EN" "http://www.w3.org/Graphics/SVG/1.1/DTD/svg11.dtd">
<svg version="1.1" id="Capa_1" xmlns="http://www.w3.org/2000/svg" xmlns:xlink="http://www.w3.org/1999/xlink" x="0px" y="0px"
	 viewBox="0 0 415 415" style="enable-background:new 0 0 415 415;" xml:space="preserve">
<g>
	<path d="M207.5,228.71c41.311,0,74.919-33.609,74.919-74.92S248.811,78.871,207.5,78.871s-74.919,33.608-74.919,74.919
		S166.189,228.71,207.5,228.71z M207.5,93.871c33.04,0,59.919,26.88,59.919,59.919c0,33.04-26.88,59.92-59.919,59.92
		s-59.919-26.88-59.919-59.92C147.581,120.751,174.46,93.871,207.5,93.871z"/>
	<path d="M207.5,253.71c-47.234,0-89.215,28.303-106.952,72.104c-1.555,3.84,0.297,8.212,4.137,9.767
		c3.839,1.558,8.212-0.296,9.767-4.136c15.432-38.109,51.956-62.734,93.048-62.734s77.616,24.625,93.048,62.734
		c1.181,2.917,3.989,4.687,6.954,4.687c0.938,0,1.891-0.177,2.813-0.551c3.839-1.555,5.691-5.927,4.137-9.767
		C296.715,282.013,254.734,253.71,207.5,253.71z"/>
	<path d="M67.5,400H15v-52.5c0-4.143-3.358-7.5-7.5-7.5S0,343.357,0,347.5v60c0,4.143,3.358,7.5,7.5,7.5h60
		c4.142,0,7.5-3.357,7.5-7.5S71.642,400,67.5,400z"/>
	<path d="M407.5,340c-4.142,0-7.5,3.357-7.5,7.5V400h-52.5c-4.142,0-7.5,3.357-7.5,7.5s3.358,7.5,7.5,7.5h60
		c4.142,0,7.5-3.357,7.5-7.5v-60C415,343.357,411.642,340,407.5,340z"/>
	<path d="M67.5,0h-60C3.358,0,0,3.357,0,7.5v60C0,71.643,3.358,75,7.5,75s7.5-3.357,7.5-7.5V15h52.5c4.142,0,7.5-3.357,7.5-7.5
		S71.642,0,67.5,0z"/>
	<path d="M407.5,0h-60c-4.142,0-7.5,3.357-7.5,7.5s3.358,7.5,7.5,7.5H400v52.5c0,4.143,3.358,7.5,7.5,7.5s7.5-3.357,7.5-7.5v-60
		C415,3.357,411.642,0,407.5,0z"/>
</g>
<g>
</g>
<g>
</g>
<g>
</g>
<g>
</g>
<g>
</g>
<g>
</g>
<g>
</g>
<g>
</g>
<g>
</g>
<g>
</g>
<g>
</g>
<g>
</g>
<g>
</g>
<g>
</g>
<g>
</g>
</svg>
